#!OML:ASF H:\Terrain\Patient Classification 1\Walking\liu\liu.ASF
:FULLY-SPECIFIED
:DEGREES
62
root 8.72585 16.0463 -23.7739 7.91601 -7.41744 -6.54397
lowerback -7.85234 3.05861 2.46958
upperback -0.660839 3.71791 3.48923
thorax 3.63761 1.85951 2.63556
lowerneck -21.6334 -5.63174 -13.6431
upperneck 19.2752 -6.72139 13.7276
head 10.7422 -2.51986 6.22463
rclavicle -6.29899e-015 5.96354e-015
rhumerus -35.4142 22.0618 -89.8968
rradius 44.3647
rwrist -21.8539
rhand -30.1295 -27.1829
rfingers 7.12502
rthumb -3.44256 -57.1348
lclavicle -6.29899e-015 5.96354e-015
lhumerus -47.3726 -4.71628 92.8396
lradius 26.7297
lwrist 4.64883
lhand -12.5657 -26.0315
lfingers 7.12502
lthumb 13.5118 3.51018
rfemur 18.4797 4.79499 30.1249
rtibia -5.40694e-014
rfoot -5.15581 6.37962
rtoes -12.8544
lfemur -41.0105 8.274 -14.6068
ltibia 26.5843
lfoot -4.36787 13.2021
ltoes -10.2453
63
root 8.75107 16.0452 -23.6117 8.07218 -7.43323 -6.46354
lowerback -7.97605 2.95891 2.32157
upperback -0.8344 3.59779 3.52522
thorax 3.51779 1.79767 2.74259
lowerneck -21.4023 -5.60193 -14.0061
upperneck 19.2502 -6.67541 14.0777
head 10.7114 -2.49581 6.42987
rclavicle 1.49834e-014 -1.94809e-014
rhumerus -35.6001 21.9076 -90.0841
rradius 43.5449
rwrist -21.6523
rhand -29.5379 -27.4441
rfingers 7.12502
rthumb -2.87122 -57.4045
lclavicle 1.49834e-014 -1.94809e-014
lhumerus -47.4419 -4.60855 92.9221
lradius 26.4129
lwrist 4.38707
lhand -12.6516 -26.2144
lfingers 7.12502
lthumb 13.429 3.33269
rfemur 18.8091 4.67524 29.7979
rtibia 0
rfoot -4.24208 6.37316
rtoes -13.8501
lfemur -41.2481 8.90876 -15.0881
ltibia 27.5298
lfoot -3.4099 12.8997
ltoes -10.3703
64
root 8.77568 16.0439 -23.4457 8.23136 -7.55476 -5.90186
lowerback -8.12847 2.84695 1.72777
upperback -1.06664 3.50832 3.40606
thorax 3.33567 1.74732 2.93991
lowerneck -21.3019 -5.59021 -14.5444
upperneck 19.4284 -6.62914 14.5376
head 10.7898 -2.4692 6.71903
rclavicle -2.48108e-014 -1.19271e-014
rhumerus -36.105 21.7169 -90.3235
rradius 42.8015
rwrist -21.4336
rhand -29.1922 -27.601
rfingers 7.12502
rthumb -2.53736 -57.5657
lclavicle -2.48108e-014 -1.19271e-014
lhumerus -47.4429 -4.39232 92.8951
lradius 25.8983
lwrist 3.90542
lhand -12.6734 -26.8643
lfingers 7.12502
lthumb 13.408 2.68426
rfemur 19.0994 4.61817 28.9003
rtibia 7.31528e-014
rfoot -3.21551 6.41152
rtoes -13.1511
lfemur -41.5017 9.54795 -16.1781
ltibia 28.4879
lfoot -2.45851 12.2024
ltoes -10.0794
65
root 8.8012 16.0453 -23.2749 8.25008 -7.68673 -5.36949
lowerback -8.3038 2.75371 1.19034
upperback -1.11862 3.43316 3.26308
thorax 3.35914 1.70428 3.09195
lowerneck -21.3 -5.55351 -14.7037
upperneck 19.4102 -6.57455 14.7415
head 10.7882 -2.43412 6.83538
rclavicle 1.26725e-015 2.34566e-014
rhumerus -36.6303 21.3305 -90.4867
rradius 42.2339
rwrist -20.9855
rhand -28.8621 -27.1272
rfingers 7.12502
rthumb -2.21851 -57.0954
lclavicle 1.26725e-015 2.34566e-014
lhumerus -47.3811 -4.35638 92.9156
lradius 25.7202
lwrist 3.57173
lhand -12.407 -27.0378
lfingers 7.12502
lthumb 13.6648 2.49366
rfemur 19.5242 4.55359 28.0332
rtibia 6.04305e-014
rfoot -2.11866 6.44983
rtoes -10.8017
lfemur -41.5495 10.0408 -17.1
ltibia 29.389
lfoot -1.65552 11.1943
ltoes -8.94707
66
root 8.8292 16.0514 -23.1072 8.21138 -7.57586 -5.25379
lowerback -8.31448 2.66702 1.13118
upperback -1.15425 3.32641 3.19288
thorax 3.33344 1.65107 3.03973
lowerneck -21.2308 -5.53692 -14.592
upperneck 19.29 -6.59062 14.7602
head 10.7311 -2.43305 6.81452
rclavicle 5.17834e-014 2.42517e-014
rhumerus -37.1831 20.9602 -90.6213
rradius 41.8414
rwrist -20.7576
rhand -28.9957 -26.3423
rfingers 7.12502
rthumb -2.34759 -56.3091
lclavicle 5.17834e-014 2.42517e-014
lhumerus -47.2949 -4.57264 92.9927
lradius 25.5792
lwrist 3.34915
lhand -12.4473 -26.7541
lfingers 7.12502
lthumb 13.6259 2.77991
rfemur 20.0251 4.28677 27.6604
rtibia 3.18055e-015
rfoot -0.9492 6.43389
rtoes -9.27608
lfemur -41.583 10.3865 -17.5279
ltibia 30.2651
lfoot -1.41036 10.1467
ltoes -7.71096
67
root 8.86065 16.0559 -22.9453 8.17607 -7.32884 -5.25699
lowerback -8.16178 2.54016 1.2031
upperback -1.26505 3.16087 3.1557
thorax 3.14647 1.57131 2.93034
lowerneck -21.3259 -5.53143 -14.4582
upperneck 19.4324 -6.62989 14.7598
head 10.8028 -2.43767 6.79145
rclavicle -5.34607e-014 -2.8625e-014
rhumerus -37.5993 20.5639 -90.7408
rradius 41.1812
rwrist -20.476
rhand -29.1283 -25.2133
rfingers 7.12502
rthumb -2.47567 -55.1787
lclavicle -5.34607e-014 -2.8625e-014
lhumerus -47.0476 -4.69485 92.9629
lradius 25.1553
lwrist 2.92301
lhand -13.2615 -27.8504
lfingers 7.12502
lthumb 12.8411 1.73458
rfemur 20.4981 3.90524 27.4123
rtibia 3.18055e-014
rfoot 0.386288 6.25361
rtoes -12.1415
lfemur -41.7034 10.6555 -17.8916
ltibia 31.1878
lfoot -1.16841 9.1829
ltoes -8.21353
68
root 8.89299 16.0634 -22.7819 8.11139 -7.34982 -5.25572
lowerback -8.07713 2.58248 1.33529
upperback -1.29249 3.21234 3.06512
thorax 3.08136 1.59898 2.76201
lowerneck -21.5051 -5.61813 -14.3958
upperneck 19.5776 -6.78411 14.8303
head 10.9177 -2.4891 6.78998
rclavicle 2.36057e-016 1.19271e-015
rhumerus -37.6889 19.6197 -90.6754
rradius 40.2742
rwrist -19.8453
rhand -28.9908 -25.0756
rfingers 7.12502
rthumb -2.34287 -55.0425
lclavicle 2.36057e-016 1.19271e-015
lhumerus -46.6797 -5.12986 92.9982
lradius 24.7778
lwrist 2.63165
lhand -14.3827 -29.7314
lfingers 7.12502
lthumb 11.7601 -0.0814964
rfemur 20.9592 3.78676 27.104
rtibia 2.22639e-014
rfoot 1.84383 6.07442
rtoes -14.8297
lfemur -41.6042 10.9824 -18.1694
ltibia 32.089
lfoot -1.13145 8.49591
ltoes -7.59488
